<svg width="100" height="26" viewBox="0 0 100 26" fill="none" xmlns="http://www.w3.org/2000/svg">
<path d="M31.6165 0.0195312L24.4544 25.5944H21.6208L15.7834 4.34708L9.9957 25.5944H7.24679L0 0.0195312H3.24093L8.85829 20.5368L14.4079 0.0195312H17.3779L22.9276 20.7241L28.528 0.0195312H31.6165Z" fill="black"/>
<path d="M63.4273 25.5943H46.7784V0.0194397H63.4273V2.76836H49.9347V10.2183H63.0867V12.9672H49.9347V22.8444H63.4263L63.4273 25.5943Z" fill="black"/>
<path d="M78.6739 25.5943V0.0194455H84.834C87.7297 -0.105662 90.6197 0.373972 93.3198 1.42777C95.344 2.33578 97.0456 3.83593 98.2001 5.73042C99.453 7.88247 100.074 10.3439 99.9929 12.8328C100.055 16.1535 98.8429 19.372 96.6065 21.8275C94.349 24.3394 90.4487 25.5953 84.9057 25.5953L78.6739 25.5943ZM81.8301 2.70064V22.9132H85.1228C89.1619 22.9132 92.0977 22.0589 93.9303 20.3505C95.763 18.642 96.6792 16.1189 96.6792 12.781C96.7582 11.4192 96.5516 10.056 96.0725 8.77882C95.5934 7.50165 94.8526 6.33878 93.8975 5.3649C92.0383 3.58872 89.1134 2.70064 85.1228 2.70064H81.8301Z" fill="black"/>
</svg>
